name Walk5.mot
datacolumns 19
datarows 30
range 1.56000000 1.58900000
endheader

                time	   L_ground_force_vx	   L_ground_force_vy	   L_ground_force_vz	   L_ground_force_px	   L_ground_force_py	   L_ground_force_pz	   R_ground_force_vx	   R_ground_force_vy	   R_ground_force_vz	   R_ground_force_px	   R_ground_force_py	   R_ground_force_pz	   L_ground_torque_x	   L_ground_torque_y	   L_ground_torque_z	   R_ground_torque_x	   R_ground_torque_y	   R_ground_torque_z	
          1.56000000	          0.00000000	          0.00000000	          0.00000000	          0.00000000	          0.00000000	          0.00000000	         18.58820597	        660.85589724	        -11.46369261	         -0.17033992	          0.00000000	          0.34584610	          0.00000000	          0.00000000	          0.00000000	          0.00000000	          2.74116779	          0.00000000	
          1.56100000	          0.00000000	          0.00000000	          0.00000000	          0.00000000	          0.00000000	          0.00000000	         18.95441900	        662.78889781	        -11.41129744	         -0.16988799	          0.00000000	          0.34569687	          0.00000000	          0.00000000	          0.00000000	          0.00000000	          2.74670115	          0.00000000	
          1.56200000	          0.00000000	          0.00000000	          0.00000000	          0.00000000	          0.00000000	          0.00000000	         19.32597130	        664.73932522	        -11.38965195	         -0.16941631	          0.00000000	          0.34555461	          0.00000000	          0.00000000	          0.00000000	          0.00000000	          2.74662523	          0.00000000	
          1.56300000	          0.00000000	          0.00000000	          0.00000000	          0.00000000	          0.00000000	          0.00000000	         19.68935925	        666.74179943	        -11.40632230	         -0.16892503	          0.00000000	          0.34543950	          0.00000000	          0.00000000	          0.00000000	          0.00000000	          2.74019000	          0.00000000	
          1.56400000	          0.00000000	          0.00000000	          0.00000000	          0.00000000	          0.00000000	          0.00000000	         20.03488994	        668.76556502	        -11.45237528	         -0.16841940	          0.00000000	          0.34538460	          0.00000000	          0.00000000	          0.00000000	          0.00000000	          2.73011321	          0.00000000	
          1.56500000	          0.00000000	          0.00000000	          0.00000000	          0.00000000	          0.00000000	          0.00000000	         20.35737000	        670.76665867	        -11.50740250	         -0.16791867	          0.00000000	          0.34539387	          0.00000000	          0.00000000	          0.00000000	          0.00000000	          2.72203795	          0.00000000	
          1.56600000	          0.00000000	          0.00000000	          0.00000000	          0.00000000	          0.00000000	          0.00000000	         20.66090728	        672.73835814	        -11.55427830	         -0.16744986	          0.00000000	          0.34542925	          0.00000000	          0.00000000	          0.00000000	          0.00000000	          2.71968470	          0.00000000	
          1.56700000	          0.00000000	          0.00000000	          0.00000000	          0.00000000	          0.00000000	          0.00000000	         20.96015726	        674.71092760	        -11.58845723	         -0.16702823	          0.00000000	          0.34544613	          0.00000000	          0.00000000	          0.00000000	          0.00000000	          2.72282443	          0.00000000	
          1.56800000	          0.00000000	          0.00000000	          0.00000000	          0.00000000	          0.00000000	          0.00000000	         21.27083300	        676.71755360	        -11.61548982	         -0.16663928	          0.00000000	          0.34541736	          0.00000000	          0.00000000	          0.00000000	          0.00000000	          2.73004945	          0.00000000	
          1.56900000	          0.00000000	          0.00000000	          0.00000000	          0.00000000	          0.00000000	          0.00000000	         21.59951773	        678.75987003	        -11.64405650	         -0.16624089	          0.00000000	          0.34533643	          0.00000000	          0.00000000	          0.00000000	          0.00000000	          2.74076440	          0.00000000	
          1.57000000	          0.00000000	          0.00000000	          0.00000000	          0.00000000	          0.00000000	          0.00000000	         21.94541479	        680.80686201	        -11.68133157	         -0.16579168	          0.00000000	          0.34521469	          0.00000000	          0.00000000	          0.00000000	          0.00000000	          2.75450013	          0.00000000	
          1.57100000	          0.00000000	          0.00000000	          0.00000000	          0.00000000	          0.00000000	          0.00000000	         22.30954596	        682.81649986	        -11.73179760	         -0.16528186	          0.00000000	          0.34507998	          0.00000000	          0.00000000	          0.00000000	          0.00000000	          2.76951342	          0.00000000	
          1.57200000	          0.00000000	          0.00000000	          0.00000000	          0.00000000	          0.00000000	          0.00000000	         22.69440679	        684.75142029	        -11.79790116	         -0.16472884	          0.00000000	          0.34497812	          0.00000000	          0.00000000	          0.00000000	          0.00000000	          2.78216611	          0.00000000	
          1.57300000	          0.00000000	          0.00000000	          0.00000000	          0.00000000	          0.00000000	          0.00000000	         23.09574257	        686.59468403	        -11.88259817	         -0.16415347	          0.00000000	          0.34494384	          0.00000000	          0.00000000	          0.00000000	          0.00000000	          2.78866264	          0.00000000	
          1.57400000	          0.00000000	          0.00000000	          0.00000000	          0.00000000	          0.00000000	          0.00000000	         23.50214406	        688.35425011	        -11.99133880	         -0.16357533	          0.00000000	          0.34496970	          0.00000000	          0.00000000	          0.00000000	          0.00000000	          2.78764742	          0.00000000	
          1.57500000	          0.00000000	          0.00000000	          0.00000000	          0.00000000	          0.00000000	          0.00000000	         23.90324909	        690.04830345	        -12.12696517	         -0.16301329	          0.00000000	          0.34503347	          0.00000000	          0.00000000	          0.00000000	          0.00000000	          2.77975710	          0.00000000	
          1.57600000	          0.00000000	          0.00000000	          0.00000000	          0.00000000	          0.00000000	          0.00000000	         24.29877180	        691.71141671	        -12.28059862	         -0.16248058	          0.00000000	          0.34512473	          0.00000000	          0.00000000	          0.00000000	          0.00000000	          2.76413087	          0.00000000	
          1.57700000	          0.00000000	          0.00000000	          0.00000000	          0.00000000	          0.00000000	          0.00000000	         24.70032393	        693.39949083	        -12.43317152	         -0.16198433	          0.00000000	          0.34522357	          0.00000000	          0.00000000	          0.00000000	          0.00000000	          2.73709991	          0.00000000	
          1.57800000	          0.00000000	          0.00000000	          0.00000000	          0.00000000	          0.00000000	          0.00000000	         25.12183748	        695.15033423	        -12.57172544	         -0.16152473	          0.00000000	          0.34529498	          0.00000000	          0.00000000	          0.00000000	          0.00000000	          2.69487131	          0.00000000	
          1.57900000	          0.00000000	          0.00000000	          0.00000000	          0.00000000	          0.00000000	          0.00000000	         25.56781274	        696.95973486	        -12.70087252	         -0.16109941	          0.00000000	          0.34531179	          0.00000000	          0.00000000	          0.00000000	          0.00000000	          2.63755491	          0.00000000	
          1.58000000	          0.00000000	          0.00000000	          0.00000000	          0.00000000	          0.00000000	          0.00000000	         26.02839788	        698.80420529	        -12.83544512	         -0.16071098	          0.00000000	          0.34526411	          0.00000000	          0.00000000	          0.00000000	          0.00000000	          2.57204214	          0.00000000	
          1.58100000	          0.00000000	          0.00000000	          0.00000000	          0.00000000	          0.00000000	          0.00000000	         26.48184717	        700.66817643	        -12.98717528	         -0.16035936	          0.00000000	          0.34515107	          0.00000000	          0.00000000	          0.00000000	          0.00000000	          2.51060989	          0.00000000	
          1.58200000	          0.00000000	          0.00000000	          0.00000000	          0.00000000	          0.00000000	          0.00000000	         26.90769176	        702.55646054	        -13.15786706	         -0.16003186	          0.00000000	          0.34497829	          0.00000000	          0.00000000	          0.00000000	          0.00000000	          2.46534293	          0.00000000	
          1.58300000	          0.00000000	          0.00000000	          0.00000000	          0.00000000	          0.00000000	          0.00000000	         27.30422977	        704.47533099	        -13.34118291	         -0.15970719	          0.00000000	          0.34477663	          0.00000000	          0.00000000	          0.00000000	          0.00000000	          2.44059734	          0.00000000	
          1.58400000	          0.00000000	          0.00000000	          0.00000000	          0.00000000	          0.00000000	          0.00000000	         27.68973604	        706.40744420	        -13.53301672	         -0.15936157	          0.00000000	          0.34460488	          0.00000000	          0.00000000	          0.00000000	          0.00000000	          2.42819838	          0.00000000	
          1.58500000	          0.00000000	          0.00000000	          0.00000000	          0.00000000	          0.00000000	          0.00000000	         28.08849138	        708.33051035	        -13.73854655	         -0.15897762	          0.00000000	          0.34450669	          0.00000000	          0.00000000	          0.00000000	          0.00000000	          2.41313200	          0.00000000	
          1.58600000	          0.00000000	          0.00000000	          0.00000000	          0.00000000	          0.00000000	          0.00000000	         28.52049476	        710.23842377	        -13.96530469	         -0.15855550	          0.00000000	          0.34447728	          0.00000000	          0.00000000	          0.00000000	          0.00000000	          2.38523776	          0.00000000	
          1.58700000	          0.00000000	          0.00000000	          0.00000000	          0.00000000	          0.00000000	          0.00000000	         28.99556308	        712.12421686	        -14.21093377	         -0.15810700	          0.00000000	          0.34448271	          0.00000000	          0.00000000	          0.00000000	          0.00000000	          2.34322591	          0.00000000	
          1.58800000	          0.00000000	          0.00000000	          0.00000000	          0.00000000	          0.00000000	          0.00000000	         29.51153217	        713.97534398	        -14.45793847	         -0.15764455	          0.00000000	          0.34448764	          0.00000000	          0.00000000	          0.00000000	          0.00000000	          2.29010755	          0.00000000	
          1.58900000	          0.00000000	          0.00000000	          0.00000000	          0.00000000	          0.00000000	          0.00000000	         30.06042639	        715.79688695	        -14.68034805	         -0.15718547	          0.00000000	          0.34446599	          0.00000000	          0.00000000	          0.00000000	          0.00000000	          2.22909894	          0.00000000	
